<svg xmlns="http://www.w3.org/2000/svg" width="1260" height="900" viewBox="0 0 1260 900"><rect width="100%" height="100%" fill="#ffffff"/><defs><marker id="ah" markerWidth="10" markerHeight="8" refX="9" refY="4" orient="auto"><path d="M0,0 L10,4 L0,8 z" fill="#1f2933"/></marker><marker id="ah2" markerWidth="10" markerHeight="8" refX="1" refY="4" orient="auto"><path d="M10,0 L0,4 L10,8 z" fill="#1f2933"/></marker></defs><rect x="40" y="20" width="270" height="54" rx="8" fill="#f1f3f5" stroke="#1f2933" stroke-width="1.5"/><text x="175" y="52" font-family="Arial, Helvetica, sans-serif" font-size="17" font-weight="bold" text-anchor="middle" fill="#1f2933">Reddit / X servers</text><rect x="20" y="110" width="310" height="600" rx="10" fill="#fbfcfd" stroke="#52606d" stroke-width="1.5" stroke-dasharray="7 5"/><text x="34" y="134" font-family="Arial, Helvetica, sans-serif" font-size="17" font-weight="bold" text-anchor="start" fill="#1f2933">User's browser (Chrome)</text><rect x="40" y="160" width="270" height="100" rx="8" fill="#e8f1fb" stroke="#1f2933" stroke-width="1.5"/><text x="175" y="196" font-family="Arial, Helvetica, sans-serif" font-size="17" font-weight="bold" text-anchor="middle" fill="#1f2933">Page context</text><text x="175" y="216" font-family="Arial, Helvetica, sans-serif" font-size="15" text-anchor="middle" fill="#1f2933">injected.js: fetch / XHR override</text><text x="175" y="236" font-family="Arial, Helvetica, sans-serif" font-size="15" text-anchor="middle" fill="#1f2933">DomProcessor, StyleManager</text><rect x="40" y="330" width="270" height="76" rx="8" fill="#e8f1fb" stroke="#1f2933" stroke-width="1.5"/><text x="175" y="364" font-family="Arial, Helvetica, sans-serif" font-size="17" font-weight="bold" text-anchor="middle" fill="#1f2933">Content script</text><text x="175" y="384" font-family="Arial, Helvetica, sans-serif" font-size="15" text-anchor="middle" fill="#1f2933">isolated world, ApiService</text><rect x="40" y="470" width="270" height="76" rx="8" fill="#e8f1fb" stroke="#1f2933" stroke-width="1.5"/><text x="175" y="504" font-family="Arial, Helvetica, sans-serif" font-size="17" font-weight="bold" text-anchor="middle" fill="#1f2933">Service worker</text><text x="175" y="524" font-family="Arial, Helvetica, sans-serif" font-size="15" text-anchor="middle" fill="#1f2933">user_id, settings, sign-in</text><rect x="40" y="610" width="270" height="76" rx="8" fill="#e8f1fb" stroke="#1f2933" stroke-width="1.5"/><text x="175" y="644" font-family="Arial, Helvetica, sans-serif" font-size="17" font-weight="bold" text-anchor="middle" fill="#1f2933">Popup and Options pages</text><text x="175" y="664" font-family="Arial, Helvetica, sans-serif" font-size="15" text-anchor="middle" fill="#1f2933">filter chat, filter list, settings</text><rect x="450" y="110" width="400" height="440" rx="10" fill="#fbfcfd" stroke="#52606d" stroke-width="1.5" stroke-dasharray="7 5"/><text x="464" y="134" font-family="Arial, Helvetica, sans-serif" font-size="17" font-weight="bold" text-anchor="start" fill="#1f2933">Backend API server (FastAPI, port 8001)</text><rect x="470" y="160" width="360" height="96" rx="8" fill="#e9f6ec" stroke="#1f2933" stroke-width="1.5"/><text x="650" y="194" font-family="Arial, Helvetica, sans-serif" font-size="17" font-weight="bold" text-anchor="middle" fill="#1f2933">Routes (app.py)</text><text x="650" y="214" font-family="Arial, Helvetica, sans-serif" font-size="15" text-anchor="middle" fill="#1f2933">/get_feed  /filters  /chat  /chat/image</text><text x="650" y="234" font-family="Arial, Helvetica, sans-serif" font-size="15" text-anchor="middle" fill="#1f2933">/get_img_result  /ws/{user_id}</text><rect x="470" y="284" width="360" height="56" rx="8" fill="#e9f6ec" stroke="#1f2933" stroke-width="1.5"/><text x="650" y="318" font-family="Arial, Helvetica, sans-serif" font-size="17" font-weight="bold" text-anchor="middle" fill="#1f2933">RedditProcessor / TwitterProcessor</text><rect x="470" y="368" width="172" height="76" rx="8" fill="#e9f6ec" stroke="#1f2933" stroke-width="1.5"/><text x="556" y="402" font-family="Arial, Helvetica, sans-serif" font-size="17" font-weight="bold" text-anchor="middle" fill="#1f2933">ImageProcessor</text><text x="556" y="422" font-family="Arial, Helvetica, sans-serif" font-size="15" text-anchor="middle" fill="#1f2933">+ FilterUtils</text><rect x="658" y="368" width="172" height="76" rx="8" fill="#e9f6ec" stroke="#1f2933" stroke-width="1.5"/><text x="744" y="402" font-family="Arial, Helvetica, sans-serif" font-size="17" font-weight="bold" text-anchor="middle" fill="#1f2933">LLMProcessor</text><text x="744" y="422" font-family="Arial, Helvetica, sans-serif" font-size="15" text-anchor="middle" fill="#1f2933">text pipeline</text><rect x="470" y="472" width="360" height="56" rx="8" fill="#e9f6ec" stroke="#1f2933" stroke-width="1.5"/><text x="650" y="506" font-family="Arial, Helvetica, sans-serif" font-size="17" font-weight="bold" text-anchor="middle" fill="#1f2933">FilterCreationChat / VisionFilterCreator</text><rect x="960" y="110" width="280" height="230" rx="10" fill="#fbfcfd" stroke="#52606d" stroke-width="1.5" stroke-dasharray="7 5"/><text x="974" y="134" font-family="Arial, Helvetica, sans-serif" font-size="17" font-weight="bold" text-anchor="start" fill="#1f2933">LLM / VLM providers</text><rect x="980" y="160" width="240" height="70" rx="8" fill="#f1f3f5" stroke="#1f2933" stroke-width="1.5"/><text x="1100" y="190" font-family="Arial, Helvetica, sans-serif" font-size="17" font-weight="bold" text-anchor="middle" fill="#1f2933">OpenAI API</text><text x="1100" y="210" font-family="Arial, Helvetica, sans-serif" font-size="15" text-anchor="middle" fill="#1f2933">GPT-4o, GPT-4o-mini</text><rect x="980" y="250" width="240" height="70" rx="8" fill="#f1f3f5" stroke="#1f2933" stroke-width="1.5"/><text x="1100" y="280" font-family="Arial, Helvetica, sans-serif" font-size="17" font-weight="bold" text-anchor="middle" fill="#1f2933">Google Gemini API</text><text x="1100" y="300" font-family="Arial, Helvetica, sans-serif" font-size="15" text-anchor="middle" fill="#1f2933">image edit, scoring</text><path d="M450,661 a90.0,11 0 0 1 180,0 v78 a90.0,11 0 0 1 -180,0 z" fill="#fdf3d8" stroke="#1f2933" stroke-width="1.5"/><path d="M450,661 a90.0,11 0 0 0 180,0" fill="none" stroke="#1f2933" stroke-width="1.5"/><text x="540" y="696" font-family="Arial, Helvetica, sans-serif" font-size="16" font-weight="bold" text-anchor="middle" fill="#1f2933">SQLite filters.db</text><text x="540" y="716" font-family="Arial, Helvetica, sans-serif" font-size="15" text-anchor="middle" fill="#1f2933">users, filters,</text><text x="540" y="736" font-family="Arial, Helvetica, sans-serif" font-size="15" text-anchor="middle" fill="#1f2933">processing_logs</text><rect x="680" y="650" width="190" height="100" rx="8" fill="#fde8e4" stroke="#1f2933" stroke-width="1.5"/><text x="775" y="686" font-family="Arial, Helvetica, sans-serif" font-size="17" font-weight="bold" text-anchor="middle" fill="#1f2933">Redis</text><text x="775" y="706" font-family="Arial, Helvetica, sans-serif" font-size="15" text-anchor="middle" fill="#1f2933">Celery broker,</text><text x="775" y="726" font-family="Arial, Helvetica, sans-serif" font-size="15" text-anchor="middle" fill="#1f2933">image cache, pub/sub</text><rect x="960" y="650" width="280" height="100" rx="8" fill="#efe9fb" stroke="#1f2933" stroke-width="1.5"/><text x="1100" y="686" font-family="Arial, Helvetica, sans-serif" font-size="17" font-weight="bold" text-anchor="middle" fill="#1f2933">Celery worker (gevent)</text><text x="1100" y="706" font-family="Arial, Helvetica, sans-serif" font-size="15" text-anchor="middle" fill="#1f2933">generate candidates,</text><text x="1100" y="726" font-family="Arial, Helvetica, sans-serif" font-size="15" text-anchor="middle" fill="#1f2933">score, pick best</text><path d="M960,811 a140.0,11 0 0 1 280,0 v62 a140.0,11 0 0 1 -280,0 z" fill="#fdf3d8" stroke="#1f2933" stroke-width="1.5"/><path d="M960,811 a140.0,11 0 0 0 280,0" fill="none" stroke="#1f2933" stroke-width="1.5"/><text x="1100" y="848" font-family="Arial, Helvetica, sans-serif" font-size="16" font-weight="bold" text-anchor="middle" fill="#1f2933">Image storage</text><text x="1100" y="868" font-family="Arial, Helvetica, sans-serif" font-size="15" text-anchor="middle" fill="#1f2933">temp/uploads or AWS S3</text><path d="M240,74 L240,160" fill="none" stroke="#1f2933" stroke-width="1.8" marker-end="url(#ah)"/><circle cx="262" cy="95" r="12" fill="#1f2933"/><text x="262" y="100" font-family="Arial, Helvetica, sans-serif" font-size="14" font-weight="bold" text-anchor="middle" fill="#ffffff">1</text><rect x="276" y="86" width="106" height="19" fill="#ffffff" opacity="0.9"/><text x="280" y="100" font-family="Arial, Helvetica, sans-serif" font-size="14" text-anchor="start" fill="#1f2933">feed response</text><path d="M110,260 L110,330" fill="none" stroke="#1f2933" stroke-width="1.8" marker-end="url(#ah)"/><circle cx="56" cy="295" r="12" fill="#1f2933"/><text x="56" y="300" font-family="Arial, Helvetica, sans-serif" font-size="14" font-weight="bold" text-anchor="middle" fill="#ffffff">2</text><rect x="70" y="286" width="76" height="19" fill="#ffffff" opacity="0.9"/><text x="74" y="300" font-family="Arial, Helvetica, sans-serif" font-size="14" text-anchor="start" fill="#1f2933">SaveBatch</text><path d="M250,330 L250,260" fill="none" stroke="#1f2933" stroke-width="1.8" stroke-dasharray="6 5" marker-end="url(#ah)"/><circle cx="196" cy="295" r="12" fill="#1f2933"/><text x="196" y="300" font-family="Arial, Helvetica, sans-serif" font-size="14" font-weight="bold" text-anchor="middle" fill="#ffffff">7</text><rect x="210" y="286" width="53" height="19" fill="#ffffff" opacity="0.9"/><text x="214" y="300" font-family="Arial, Helvetica, sans-serif" font-size="14" text-anchor="start" fill="#1f2933">render</text><path d="M175,406 L175,470" fill="none" stroke="#1f2933" stroke-width="1.8" marker-end="url(#ah)" marker-start="url(#ah2)"/><rect x="186" y="430" width="106" height="18" fill="#ffffff" opacity="0.9"/><text x="190" y="443" font-family="Arial, Helvetica, sans-serif" font-size="13" text-anchor="start" fill="#1f2933">chrome.runtime</text><path d="M175,610 L175,546" fill="none" stroke="#1f2933" stroke-width="1.8" marker-end="url(#ah)"/><rect x="186" y="570" width="106" height="18" fill="#ffffff" opacity="0.9"/><text x="190" y="583" font-family="Arial, Helvetica, sans-serif" font-size="13" text-anchor="start" fill="#1f2933">chrome.runtime</text><path d="M310,340 L470,180" fill="none" stroke="#1f2933" stroke-width="1.8" marker-end="url(#ah)"/><circle cx="350" cy="300" r="13" fill="#1f2933" stroke="#ffffff" stroke-width="2"/><text x="350" y="305" font-family="Arial, Helvetica, sans-serif" font-size="14" font-weight="bold" text-anchor="middle" fill="#ffffff">3</text><path d="M470,208 L310,368" fill="none" stroke="#1f2933" stroke-width="1.8" stroke-dasharray="6 5" marker-end="url(#ah)"/><circle cx="390" cy="288" r="13" fill="#1f2933" stroke="#ffffff" stroke-width="2"/><text x="390" y="293" font-family="Arial, Helvetica, sans-serif" font-size="14" font-weight="bold" text-anchor="middle" fill="#ffffff">7</text><path d="M310,396 L470,236" fill="none" stroke="#1f2933" stroke-width="1.8" marker-end="url(#ah)" marker-start="url(#ah2)"/><circle cx="430" cy="276" r="13" fill="#1f2933" stroke="#ffffff" stroke-width="2"/><text x="430" y="281" font-family="Arial, Helvetica, sans-serif" font-size="14" font-weight="bold" text-anchor="middle" fill="#ffffff">10</text><path d="M310,648 L470,500" fill="none" stroke="#1f2933" stroke-width="1.8" marker-end="url(#ah)" marker-start="url(#ah2)"/><circle cx="332" cy="551" r="12" fill="#1f2933"/><text x="332" y="556" font-family="Arial, Helvetica, sans-serif" font-size="14" font-weight="bold" text-anchor="middle" fill="#ffffff">A</text><rect x="346" y="543" width="85" height="18" fill="#ffffff" opacity="0.9"/><text x="350" y="556" font-family="Arial, Helvetica, sans-serif" font-size="13" text-anchor="start" fill="#1f2933">filter chat</text><rect x="346" y="560" width="64" height="18" fill="#ffffff" opacity="0.9"/><text x="350" y="573" font-family="Arial, Helvetica, sans-serif" font-size="13" text-anchor="start" fill="#1f2933">and CRUD</text><path d="M650,256 L650,284" fill="none" stroke="#1f2933" stroke-width="1.8" marker-end="url(#ah)"/><path d="M556,340 L556,368" fill="none" stroke="#1f2933" stroke-width="1.8" marker-end="url(#ah)"/><path d="M744,340 L744,368" fill="none" stroke="#1f2933" stroke-width="1.8" marker-end="url(#ah)"/><path d="M830,400 L980,200" fill="none" stroke="#1f2933" stroke-width="1.8" marker-end="url(#ah)" marker-start="url(#ah2)"/><circle cx="905" cy="375" r="12" fill="#1f2933"/><text x="905" y="380" font-family="Arial, Helvetica, sans-serif" font-size="14" font-weight="bold" text-anchor="middle" fill="#ffffff">5</text><rect x="919" y="367" width="106" height="18" fill="#ffffff" opacity="0.9"/><text x="923" y="380" font-family="Arial, Helvetica, sans-serif" font-size="13" text-anchor="start" fill="#1f2933">text LLM calls</text><path d="M830,490 L980,222" fill="none" stroke="#1f2933" stroke-width="1.8" stroke-dasharray="6 5" marker-end="url(#ah)" marker-start="url(#ah2)"/><path d="M540,550 L540,650" fill="none" stroke="#1f2933" stroke-width="1.8" marker-end="url(#ah)" marker-start="url(#ah2)"/><circle cx="558" cy="599" r="12" fill="#1f2933"/><text x="558" y="604" font-family="Arial, Helvetica, sans-serif" font-size="14" font-weight="bold" text-anchor="middle" fill="#ffffff">4</text><rect x="572" y="590" width="61" height="19" fill="#ffffff" opacity="0.9"/><text x="576" y="604" font-family="Arial, Helvetica, sans-serif" font-size="14" text-anchor="start" fill="#1f2933">filters</text><path d="M730,550 L730,650" fill="none" stroke="#1f2933" stroke-width="1.8" marker-end="url(#ah)"/><circle cx="676" cy="599" r="12" fill="#1f2933"/><text x="676" y="604" font-family="Arial, Helvetica, sans-serif" font-size="14" font-weight="bold" text-anchor="middle" fill="#ffffff">6</text><rect x="690" y="591" width="57" height="18" fill="#ffffff" opacity="0.9"/><text x="694" y="604" font-family="Arial, Helvetica, sans-serif" font-size="13" text-anchor="start" fill="#1f2933">enqueue</text><path d="M830,650 L830,550" fill="none" stroke="#1f2933" stroke-width="1.8" stroke-dasharray="6 5" marker-end="url(#ah)"/><circle cx="848" cy="599" r="12" fill="#1f2933"/><text x="848" y="604" font-family="Arial, Helvetica, sans-serif" font-size="14" font-weight="bold" text-anchor="middle" fill="#ffffff">10</text><rect x="862" y="591" width="78" height="18" fill="#ffffff" opacity="0.9"/><text x="866" y="604" font-family="Arial, Helvetica, sans-serif" font-size="13" text-anchor="start" fill="#1f2933">cache read</text><path d="M870,680 L960,680" fill="none" stroke="#1f2933" stroke-width="1.8" marker-end="url(#ah)"/><circle cx="915" cy="680" r="13" fill="#1f2933" stroke="#ffffff" stroke-width="2"/><text x="915" y="685" font-family="Arial, Helvetica, sans-serif" font-size="14" font-weight="bold" text-anchor="middle" fill="#ffffff">8</text><path d="M960,725 L870,725" fill="none" stroke="#1f2933" stroke-width="1.8" stroke-dasharray="6 5" marker-end="url(#ah)"/><circle cx="915" cy="725" r="13" fill="#1f2933" stroke="#ffffff" stroke-width="2"/><text x="915" y="730" font-family="Arial, Helvetica, sans-serif" font-size="14" font-weight="bold" text-anchor="middle" fill="#ffffff">9</text><path d="M1100,650 L1100,340" fill="none" stroke="#1f2933" stroke-width="1.8" marker-end="url(#ah)" marker-start="url(#ah2)"/><circle cx="1118" cy="485" r="12" fill="#1f2933"/><text x="1118" y="490" font-family="Arial, Helvetica, sans-serif" font-size="14" font-weight="bold" text-anchor="middle" fill="#ffffff">8</text><rect x="1132" y="477" width="92" height="18" fill="#ffffff" opacity="0.9"/><text x="1136" y="490" font-family="Arial, Helvetica, sans-serif" font-size="13" text-anchor="start" fill="#1f2933">generate and</text><rect x="1132" y="494" width="92" height="18" fill="#ffffff" opacity="0.9"/><text x="1136" y="507" font-family="Arial, Helvetica, sans-serif" font-size="13" text-anchor="start" fill="#1f2933">score images</text><path d="M1100,750 L1100,800" fill="none" stroke="#1f2933" stroke-width="1.8" marker-end="url(#ah)"/><circle cx="1118" cy="777" r="12" fill="#1f2933"/><text x="1118" y="782" font-family="Arial, Helvetica, sans-serif" font-size="14" font-weight="bold" text-anchor="middle" fill="#ffffff">9</text><rect x="1132" y="769" width="78" height="18" fill="#ffffff" opacity="0.9"/><text x="1136" y="782" font-family="Arial, Helvetica, sans-serif" font-size="13" text-anchor="start" fill="#1f2933">save image</text></svg>